<svg width="1284" height="758" viewBox="0 0 1284 758" fill="none" xmlns="http://www.w3.org/2000/svg">
<g clip-path="url(#clip0_101_38)" filter="url(#filter0_d_101_38)">
<path d="M1051.01 230.468C1058.83 230.468 1065.72 233.218 1071.7 238.719C1077.45 244.219 1080.33 252.928 1080.33 264.845V318.211V402.307C1080.33 405.974 1081.47 407.294 1083.31 408.899C1085.15 410.503 1087.74 410.901 1092.11 410.901H1102.33V436.684H1078.88C1071.06 436.684 1065.81 433.41 1059.83 427.91C1054.08 422.409 1051.01 414.224 1051.01 402.307L1051 318.211L1050.99 264.845C1050.99 261.178 1050.09 260.262 1048.25 258.657C1046.41 257.053 1043.31 256.251 1038.94 256.251H1027.55V230.468H1051.01Z" fill="#A8FF78"/>
<path fill-rule="evenodd" clip-rule="evenodd" d="M1291.5 531.5V505.717H1197.61H1166.92C1160.94 505.717 1156.57 504.342 1153.81 501.592C1151.05 498.841 1149.67 494.487 1149.67 488.528V471.34C1149.67 465.381 1151.62 460.454 1155.53 456.557C1159.44 452.661 1164.39 450.713 1170.37 450.713H1242.8V414.617C1242.8 395.366 1237.97 381.386 1228.31 372.677C1218.88 363.968 1204.17 359.613 1184.16 359.613H1134.15V385.396H1187.61C1196.12 385.396 1202.56 387.344 1206.93 391.241C1211.29 395.137 1213.48 400.637 1213.48 407.742V424.93H1170.71C1137.14 424.93 1120.35 442.692 1120.35 478.215V485.091C1120.35 502.05 1124.26 514.082 1132.08 521.187C1140.13 528.062 1152.89 531.5 1170.37 531.5H1201.06H1291.5Z" fill="#FFFCDC"/>
<path d="M1031.8 696.545H1017.66C997.427 696.545 982.596 692.305 973.168 683.825C963.741 675.116 959.027 661.022 959.027 641.541V579.662C959.027 560.411 963.741 546.431 973.168 537.722C982.826 529.013 997.657 524.658 1017.66 524.658H1057.67V455.904H1086.99V550.441H1014.21C1005.71 550.441 999.267 552.389 994.898 556.285C990.529 560.182 988.345 565.682 988.345 572.787V648.417C988.345 655.521 990.529 661.022 994.898 664.918C999.267 668.814 1005.71 670.762 1014.21 670.762H1035.25H1106.56V581.897C1106.56 573.775 1109.36 566.463 1115.1 562.076C1120.84 557.688 1131.24 556.114 1141.74 556.114H1161.74H1197.27V583.615H1158.29H1158.16C1150.83 583.615 1142.24 583.615 1138.58 588.398C1134.9 592.982 1136.1 600.117 1135.87 604.929V756H1106.56V696.545H1031.8Z" fill="#0071D2"/>
<path d="M1017.63 214.641H1031.78H1086.96V188.858H1035.23H1014.19C1005.68 188.858 999.24 186.91 994.871 183.014C990.502 179.118 988.317 173.618 988.317 166.513V90.8828C988.317 83.7782 990.502 78.2778 994.871 74.3817C999.24 70.4856 1005.68 68.5376 1014.19 68.5376H1086.96V-26H1057.64V42.7546H1017.63C997.63 42.7546 982.799 47.1091 973.141 55.818C963.714 64.5269 959 78.507 959 97.7583V159.637C959 179.118 963.714 193.213 973.141 201.921C982.569 210.401 997.4 214.641 1017.63 214.641Z" fill="#FFFCDC"/>
<path d="M1115.1 293.428V173.108C1115.1 164.986 1117.91 157.674 1123.65 153.287C1129.39 148.899 1139.79 147.325 1150.28 147.325H1170.29H1205.81V174.826H1166.84H1166.71C1159.38 174.826 1150.78 174.826 1147.13 179.609C1143.45 184.193 1144.65 191.328 1144.42 196.14V293.428V335.5H1115.1V293.428Z" fill="#F094CF"/>
<path d="M1259.06 191.486H1244.91C1224.68 191.486 1209.85 195.726 1200.42 204.205C1190.99 212.914 1186.28 227.009 1186.28 246.489V295.482C1186.28 314.733 1190.99 328.713 1200.42 337.422C1210.08 346.131 1224.91 350.485 1244.91 350.485H1284.92H1314.24V324.702V191.486H1259.06ZM1262.5 217.269C1270.09 217.269 1314.24 217.269 1314.24 217.269V324.702H1241.47C1232.96 324.702 1226.52 322.754 1222.15 318.858C1217.78 314.962 1215.6 309.462 1215.6 302.357V239.614C1215.6 232.509 1217.78 227.009 1222.15 223.113C1226.52 219.217 1232.96 217.269 1241.47 217.269H1262.5Z" fill="#0071D2"/>
<path d="M1115.5 -20.5C1115.5 -20.5 1115.5 91.6988 1115.5 99.8207C1115.5 107.943 1118.31 115.255 1124.05 119.642C1129.79 124.029 1140.19 125.604 1150.68 125.604H1170.69H1302.5V98.1019H1167.24C1159.88 98.1019 1151.2 98.1315 1147.52 93.3187C1143.84 88.7351 1145.05 81.6007 1144.82 76.7878V-20.5H1115.5Z" fill="#A8FF78"/>
<path d="M1206.77 806.257H1177.45L1177.45 637.918C1177.45 626.001 1180.53 617.816 1186.28 612.315C1192.26 606.815 1197.51 603.541 1205.33 603.541H1305.26V629.324H1218.56C1214.19 629.324 1211.59 629.722 1209.75 631.326C1207.92 632.931 1206.77 634.251 1206.77 637.918L1206.77 806.257Z" fill="#F094CF"/>
</g>
<defs>
<filter id="filter0_d_101_38" x="-4" y="0" width="1288" height="758" filterUnits="userSpaceOnUse" color-interpolation-filters="sRGB">
<feFlood flood-opacity="0" result="BackgroundImageFix"/>
<feColorMatrix in="SourceAlpha" type="matrix" values="0 0 0 0 0 0 0 0 0 0 0 0 0 0 0 0 0 0 127 0" result="hardAlpha"/>
<feOffset dy="4"/>
<feGaussianBlur stdDeviation="2"/>
<feComposite in2="hardAlpha" operator="out"/>
<feColorMatrix type="matrix" values="0 0 0 0 0 0 0 0 0 0 0 0 0 0 0 0 0 0 0.25 0"/>
<feBlend mode="normal" in2="BackgroundImageFix" result="effect1_dropShadow_101_38"/>
<feBlend mode="normal" in="SourceGraphic" in2="effect1_dropShadow_101_38" result="shape"/>
</filter>
<clipPath id="clip0_101_38">
<rect width="1280" height="750" fill="white"/>
</clipPath>
</defs>
</svg>
