<svg width="50" height="58" viewBox="0 0 50 58" fill="none" xmlns="http://www.w3.org/2000/svg">
<path d="M11.2782 30.6415H9.90954H8.12756C5.57774 30.6415 3.70883 30.1016 2.52085 29.0219C1.33286 27.913 0.73887 26.1182 0.73887 23.6377V15.7585C0.73887 13.3072 1.33286 11.527 2.52085 10.4181C3.73781 9.30918 5.60672 8.75472 8.12756 8.75472H13.1693V0H16.8636V30.6415H9.90954H11.2782ZM10.3442 27.3585C11.3004 27.3585 12.0102 27.1104 12.4739 26.6143C12.9375 26.0891 13.1693 25.5346 13.1693 24.9509V12.0377H7.69293C6.62085 12.0377 5.80954 12.2858 5.25901 12.7819C4.70848 13.278 4.43322 13.9784 4.43322 14.883V24.5132C4.43322 25.4179 4.70848 26.1182 5.25901 26.6143C5.80954 27.1104 6.62085 27.3585 7.69293 27.3585H10.3442Z" fill="white"/>
<path d="M21.5593 27.3585V12.0377H18.3865V8.75472H25.0363V9.9366C25.9925 9.14868 27.1515 8.75472 28.5134 8.75472H32.99V12.2566H28.0787C27.1515 12.2566 26.4561 12.563 25.9925 13.1758C25.5289 13.7595 25.2826 14.3577 25.2536 14.9706V27.3585H30.1215V30.6415H16.8636V27.3585H21.5593Z" fill="white"/>
<path d="M41.1176 30.6415C42.1028 30.6415 42.972 30.2913 43.7254 29.5909C44.4498 28.8906 44.812 27.7816 44.812 26.2642L44.8137 4.37736L41.1193 0L41.1176 26.0453C41.1176 26.5122 41.0017 26.8478 40.7699 27.0521C40.5381 27.2564 40.1469 27.3585 39.5964 27.3585H33.8158V30.6415H41.1176Z" fill="white"/>
<path d="M15.212 58C14.8353 58 14.4152 57.8833 13.9516 57.6498C13.517 57.4164 13.1403 57.0953 12.8216 56.6868C12.1551 57.5623 11.2714 58 10.1703 58H6.30212C4.1 58 2.49187 57.5623 1.47774 56.6868C0.49258 55.7821 0 54.2501 0 52.0906V51.2151C0 46.6918 2.1152 44.4302 6.34558 44.4302H11.735V42.2415C11.735 41.3369 11.4597 40.6365 10.9092 40.1404C10.3587 39.6443 9.54735 39.3962 8.47527 39.3962H1.73852V36.1132H8.04064C10.5615 36.1132 12.4159 36.6677 13.6039 37.7766C14.8209 38.8855 15.4293 40.6657 15.4293 43.117V53.6226C15.4293 54.0604 15.5816 54.326 15.9004 54.5594C16.0853 54.9318 24.6452 54.717 24.6452 54.717V58H15.212ZM9.73569 54.717C10.6049 54.717 11.1555 54.5127 11.3873 54.1042C11.6191 53.6956 11.735 53.1703 11.735 52.5283V47.7132H6.30212C5.54876 47.7132 4.9258 47.9613 4.43322 48.4574C3.94064 48.9535 3.69435 49.5809 3.69435 50.3396V52.5283C3.69435 53.287 3.8682 53.8415 4.2159 54.1917C4.56361 54.5419 5.11414 54.717 5.86749 54.717H9.73569Z" fill="white"/>
<path d="M26.8618 58H24.6452C22.0953 58 19.4731 56.3804 19.4731 56.3804C18.2851 55.2714 17.6911 53.4767 17.6911 50.9962V43.117C17.6911 40.6657 18.2851 38.8855 19.4731 37.7766C20.69 36.6677 22.5589 36.1132 25.0798 36.1132H30.1215V27.3585H33.8158V58H26.8618ZM27.2964 54.717C28.2526 54.717 28.9625 54.4689 29.4261 53.9728C29.8897 53.4475 30.1215 52.8931 30.1215 52.3094V39.3962H24.6452C23.5731 39.3962 22.7618 39.6443 22.2112 40.1404C21.6607 40.6365 21.3854 41.3369 21.3854 42.2415V51.8717C21.3854 52.7764 21.6607 53.4767 22.2112 53.9728C22.7618 54.4689 23.5731 54.717 24.6452 54.717H27.2964Z" fill="white"/>
<path d="M38.5115 54.717V39.3962H35.3387V36.1132H41.9886V37.2951C42.9447 36.5072 44.1038 36.1132 45.4656 36.1132H49.9423V39.6151H45.031C44.1038 39.6151 43.4083 39.9215 42.9447 40.5343C42.4811 41.118 42.2349 41.7162 42.2059 42.3291V54.717H46.9433V58H33.8158V54.717H38.5115Z" fill="white"/>
<path d="M41.1193 0C42.1045 0 42.9737 0.350188 43.7271 1.05057C44.4515 1.75094 44.8137 2.85987 44.8137 4.37736V27.3585L50 27.3585V30.6415H41.1193L41.1176 4.37736C41.1176 3.91044 41.0034 3.79371 40.7716 3.58943C40.5398 3.38516 40.1486 3.28302 39.5981 3.28302H38.1638V0H41.1193Z" fill="white"/>
</svg>
