<svg width="908" height="758" viewBox="0 0 908 758" fill="none" xmlns="http://www.w3.org/2000/svg">
<g clip-path="url(#clip0_111_28)" filter="url(#filter0_d_111_28)">
<path d="M613.789 514.009C613.789 521.827 611.039 528.725 605.538 534.703C600.038 540.452 591.329 543.326 579.412 543.326L526.046 543.326L441.95 543.326C438.283 543.326 436.962 544.47 435.358 546.309C433.754 548.149 433.356 550.744 433.356 555.112L433.356 565.334L407.573 565.334L407.573 541.88C407.573 534.062 410.847 528.812 416.347 522.833C421.847 517.085 430.033 514.009 441.95 514.009L526.046 514.002L579.412 513.995C583.078 513.995 583.995 513.089 585.599 511.249C587.204 509.41 588.006 506.305 588.006 501.937L588.006 490.554L613.789 490.554L613.789 514.009Z" fill="#A8FF78"/>
<path fill-rule="evenodd" clip-rule="evenodd" d="M312.757 754.5L338.54 754.5L338.54 660.613L338.54 629.916C338.54 623.938 339.915 619.569 342.665 616.809C345.415 614.05 349.77 612.67 355.728 612.67L372.917 612.67C378.876 612.67 383.803 614.625 387.699 618.534C391.595 622.443 393.544 627.387 393.544 633.365L393.544 705.796L429.64 705.796C448.891 705.796 462.871 700.968 471.58 691.31C480.289 681.883 484.643 667.166 484.643 647.162L484.643 597.149L458.86 597.149L458.86 650.611C458.86 659.118 456.912 665.557 453.016 669.926C449.12 674.295 443.62 676.479 436.515 676.479L419.326 676.479L419.326 633.71C419.326 600.139 401.565 583.353 366.042 583.353L359.166 583.353C342.207 583.353 330.175 587.262 323.07 595.08C316.195 603.128 312.757 615.89 312.757 633.365L312.757 664.062L312.757 754.5Z" fill="#FFFCDC"/>
<path d="M147.712 494.803L147.712 480.662C147.712 460.427 151.952 445.596 160.432 436.168C169.14 426.741 183.235 422.027 202.716 422.027L264.595 422.027C283.846 422.027 297.826 426.741 306.535 436.168C315.244 445.826 319.599 460.657 319.599 480.662L319.599 520.672L388.353 520.672L388.353 549.989L293.815 549.989L293.815 477.213C293.815 468.705 291.867 462.267 287.971 457.898C284.075 453.529 278.575 451.345 271.47 451.345L195.84 451.345C188.736 451.345 183.235 453.529 179.339 457.898C175.443 462.267 173.495 468.705 173.495 477.213L173.495 498.253L173.495 569.557L262.36 569.557C270.482 569.557 277.794 572.363 282.181 578.103C286.568 583.844 288.143 594.243 288.143 604.737L288.143 624.742L288.143 660.268L260.641 660.268L260.641 621.293L260.641 621.158C260.642 613.829 260.642 605.236 255.858 601.579C251.275 597.9 244.14 599.104 239.327 598.874L-10 598.874L-10 569.556L147.712 569.557L147.712 494.803Z" fill="#0071D2"/>
<path d="M629.616 480.635L629.616 494.776L629.616 549.962L655.399 549.962L655.399 498.225L655.399 477.186C655.399 468.678 657.347 462.24 661.243 457.871C665.139 453.502 670.639 451.318 677.744 451.318L753.374 451.318C760.479 451.318 765.979 453.502 769.875 457.871C773.771 462.24 775.719 468.678 775.719 477.186L775.719 549.962L917 549.962L917 520.645L801.502 520.645L801.502 480.635C801.502 460.63 797.148 445.799 788.439 436.141C779.73 426.714 765.75 422 746.499 422L684.619 422C665.139 422 651.044 426.714 642.335 436.141C633.856 445.569 629.616 460.4 629.616 480.635Z" fill="#FFFCDC"/>
<path d="M550.829 578.103L671.149 578.103C679.271 578.103 686.583 580.91 690.97 586.65C695.357 592.391 696.932 602.79 696.932 613.284L696.932 633.289L696.932 668.815L669.43 668.815L669.43 629.84L669.43 629.705C669.431 622.376 669.431 613.782 664.647 610.126C660.064 606.447 652.929 607.651 648.116 607.421L550.829 607.421L508.757 607.421L508.757 578.103L550.829 578.103Z" fill="#F094CF"/>
<path d="M652.771 722.056L652.771 707.914C652.771 687.679 648.531 672.848 640.052 663.421C631.343 653.993 617.248 649.279 597.768 649.279L548.775 649.279C529.524 649.279 515.544 653.993 506.835 663.421C498.126 673.078 493.771 687.909 493.771 707.914L493.771 747.924L493.771 777.242L519.554 777.242L652.771 777.242L652.771 722.056ZM626.988 725.505C626.988 733.093 626.988 777.242 626.988 777.242L519.554 777.242L519.554 704.465C519.554 695.957 521.502 689.519 525.399 685.15C529.295 680.781 534.795 678.597 541.9 678.597L604.643 678.597C611.748 678.597 617.248 680.781 621.144 685.15C625.04 689.519 626.988 695.957 626.988 704.465L626.988 725.505Z" fill="#0071D2"/>
<path d="M919.5 578.5C919.5 578.5 752.558 578.5 744.436 578.5C736.314 578.5 729.002 581.306 724.615 587.047C720.228 592.788 718.653 603.186 718.653 613.681L718.653 633.686L718.653 765.5L746.155 765.5L746.155 630.237C746.155 622.879 746.125 614.202 750.938 610.522C755.522 606.843 762.656 608.047 767.469 607.817L919.5 607.817L919.5 578.5Z" fill="#A8FF78"/>
<path d="M-7.5 669.772L-7.5 640.448L206.339 640.454C218.256 640.454 226.441 643.531 231.942 649.279C237.442 655.258 240.716 660.508 240.716 668.326L240.716 768.26L214.933 768.26L214.933 681.558C214.933 677.189 214.535 674.594 212.931 672.755C211.326 670.915 210.006 669.772 206.339 669.772L-7.5 669.772Z" fill="#F094CF"/>
</g>
<defs>
<filter id="filter0_d_111_28" x="0" y="0" width="908" height="758" filterUnits="userSpaceOnUse" color-interpolation-filters="sRGB">
<feFlood flood-opacity="0" result="BackgroundImageFix"/>
<feColorMatrix in="SourceAlpha" type="matrix" values="0 0 0 0 0 0 0 0 0 0 0 0 0 0 0 0 0 0 127 0" result="hardAlpha"/>
<feOffset dy="4"/>
<feGaussianBlur stdDeviation="2"/>
<feComposite in2="hardAlpha" operator="out"/>
<feColorMatrix type="matrix" values="0 0 0 0 0 0 0 0 0 0 0 0 0 0 0 0 0 0 0.25 0"/>
<feBlend mode="normal" in2="BackgroundImageFix" result="effect1_dropShadow_111_28"/>
<feBlend mode="normal" in="SourceGraphic" in2="effect1_dropShadow_111_28" result="shape"/>
</filter>
<clipPath id="clip0_111_28">
<rect width="900" height="750" fill="white" transform="translate(4)"/>
</clipPath>
</defs>
</svg>
