<svg width="141" height="394" viewBox="0 0 141 394" fill="none" xmlns="http://www.w3.org/2000/svg">
<path d="M38.0054 125.746H30.6205C20.0534 125.746 12.3082 123.531 7.38493 119.1C2.46165 114.549 0 107.184 0 97.0042V64.6694C0 54.6097 2.46165 47.3045 7.38493 42.7537C12.4283 38.2029 20.1735 35.9275 30.6205 35.9275H51.5145V0H66.8247V49.4003V125.746H38.0054ZM39.8066 112.273C43.7693 112.273 66.8247 112.273 66.8247 112.273V49.4003H28.8193C24.3763 49.4003 21.014 50.4182 18.7325 52.4541C16.451 54.49 15.3102 57.3642 15.3102 61.0767V100.597C15.3102 104.309 16.451 107.184 18.7325 109.219C21.014 111.255 24.3763 112.273 28.8193 112.273H39.8066Z" fill="white"/>
<path d="M77.0573 166.916C77.0573 166.916 77.0573 108.287 77.0573 104.043C77.0573 99.7989 78.5227 95.978 81.5206 93.6856C84.5185 91.3931 89.949 90.5701 95.4295 90.5701H105.876H124.429V104.941H104.075C100.233 104.941 95.7014 104.926 93.7801 107.441C91.8588 109.836 92.4875 113.564 92.3675 116.079V166.916V180.389H77.0573V166.916Z" fill="white"/>
<path d="M44.9155 134.539C48.9983 134.539 52.6007 135.976 55.7228 138.85C58.7248 141.724 60.2258 146.275 60.2258 152.503V180.389H44.9121L44.9084 152.503C44.9084 150.587 44.4352 150.108 43.4746 149.269C42.5139 148.431 40.8928 148.012 38.6113 148.012H32.6673V134.539H44.9155Z" fill="white"/>
<path d="M59.4708 242.296C55.3881 242.296 52.6462 240.586 49.5241 237.711C46.5221 234.837 44.9155 230.56 44.9155 224.333L44.9121 180.389H60.2258V224.333C60.2258 226.249 60.823 226.939 61.7836 227.777C62.7443 228.616 64.0994 228.824 66.3809 228.824H71.7191V242.296H59.4708Z" fill="white"/>
<path d="M141 274.272V287.745C141 287.745 123.768 287.745 119.205 287.745H103.175C94.0486 287.745 87.3842 285.948 83.1814 282.355C79.0986 278.643 77.0573 272.356 77.0573 263.493V259.901C77.0573 241.338 85.8231 232.057 103.355 232.057H125.69V223.075C125.69 219.363 124.549 216.488 122.267 214.452C119.986 212.417 116.624 211.399 112.181 211.399H84.2621V197.926H110.38C120.827 197.926 128.512 200.201 133.435 204.752C138.478 209.303 141 216.608 141 226.668V274.272ZM117.404 274.272C121.007 274.272 141 274.272 141 274.272V245.53H103.175C100.053 245.53 97.4709 246.548 95.4295 248.584C93.3882 250.619 92.3675 253.194 92.3675 256.308V265.29C92.3675 268.404 93.088 270.679 94.529 272.116C95.9699 273.553 98.2514 274.272 101.374 274.272H117.404Z" fill="white"/>
<path d="M38.0196 377.563H30.6346C20.0676 377.563 12.3224 375.348 7.39908 370.917C2.47579 366.366 0.0141468 359.001 0.0141468 348.821V316.487C0.0141468 306.427 2.47579 299.122 7.39908 294.571C12.4425 290.02 20.1876 287.745 30.6346 287.745H51.5286V251.817H66.8388V301.217V377.563H38.0196ZM39.8208 364.09C43.7834 364.09 66.8388 364.09 66.8388 364.09V301.217H28.8334C24.3904 301.217 21.0282 302.235 18.7467 304.271C16.4651 306.307 15.3244 309.181 15.3244 312.894V352.414C15.3244 356.126 16.4651 359.001 18.7467 361.037C21.0282 363.072 24.3904 364.09 28.8334 364.09H39.8208Z" fill="white"/>
<path d="M77.0573 380.527C77.0573 380.527 77.0573 321.898 77.0573 317.654C77.0573 313.41 78.5227 309.589 81.5206 307.297C84.5185 305.004 89.949 304.181 95.4295 304.181H105.876H124.429V318.552H104.075C100.233 318.552 95.7014 318.537 93.7801 321.052C91.8588 323.447 92.4875 327.175 92.3675 329.69V380.527V394H77.0573V380.527Z" fill="white"/>
</svg>
