<svg width="90" height="90" viewBox="0 0 90 90" fill="none" xmlns="http://www.w3.org/2000/svg">
<path d="M20 2.5C10.335 2.5 2.5 10.335 2.5 20V70C2.5 79.665 10.335 87.5 20 87.5H70C79.665 87.5 87.5 79.665 87.5 70V20C87.5 10.335 79.665 2.5 70 2.5H20Z" fill="black" stroke="black" stroke-width="5"/>
<path d="M31.2782 46.6415H29.9095H28.1276C25.5777 46.6415 23.7088 46.1016 22.5208 45.0219C21.3329 43.913 20.7389 42.1182 20.7389 39.6377V31.7585C20.7389 29.3072 21.3329 27.527 22.5208 26.4181C23.7378 25.3092 25.6067 24.7547 28.1276 24.7547H33.1693V16H36.8636V46.6415H29.9095H31.2782ZM30.3442 43.3585C31.3004 43.3585 32.0102 43.1104 32.4739 42.6143C32.9375 42.0891 33.1693 41.5346 33.1693 40.9509V28.0377H27.6929C26.6208 28.0377 25.8095 28.2858 25.259 28.7819C24.7085 29.278 24.4332 29.9784 24.4332 30.883V40.5132C24.4332 41.4179 24.7085 42.1182 25.259 42.6143C25.8095 43.1104 26.6208 43.3585 27.6929 43.3585H30.3442Z" fill="white"/>
<path d="M41.5593 43.3585V28.0377H38.3865V24.7547H45.0363V25.9366C45.9925 25.1487 47.1515 24.7547 48.5134 24.7547H52.99V28.2566H48.0787C47.1515 28.2566 46.4561 28.563 45.9925 29.1758C45.5289 29.7595 45.2826 30.3577 45.2536 30.9706V43.3585H50.1215V46.6415H36.8636V43.3585H41.5593Z" fill="white"/>
<path d="M61.1176 46.6415C62.1028 46.6415 62.972 46.2913 63.7254 45.5909C64.4498 44.8906 64.812 43.7816 64.812 42.2642L64.8137 20.3774L61.1193 16L61.1176 42.0453C61.1176 42.5122 61.0017 42.8478 60.7699 43.0521C60.5381 43.2564 60.1469 43.3585 59.5964 43.3585H53.8158V46.6415H61.1176Z" fill="white"/>
<path d="M35.212 74C34.8353 74 34.4152 73.8833 33.9516 73.6498C33.517 73.4164 33.1403 73.0953 32.8216 72.6868C32.1551 73.5623 31.2714 74 30.1703 74H26.3021C24.1 74 22.4919 73.5623 21.4777 72.6868C20.4926 71.7821 20 70.2501 20 68.0906V67.2151C20 62.6918 22.1152 60.4302 26.3456 60.4302H31.735V58.2415C31.735 57.3369 31.4597 56.6365 30.9092 56.1404C30.3587 55.6443 29.5474 55.3962 28.4753 55.3962H21.7385V52.1132H28.0406C30.5615 52.1132 32.4159 52.6677 33.6039 53.7766C34.8209 54.8855 35.4293 56.6657 35.4293 59.117V69.6226C35.4293 70.0604 35.5816 70.326 35.9004 70.5594C36.0853 70.9318 44.6452 70.717 44.6452 70.717V74H35.212ZM29.7357 70.717C30.6049 70.717 31.1555 70.5127 31.3873 70.1042C31.6191 69.6956 31.735 69.1703 31.735 68.5283V63.7132H26.3021C25.5488 63.7132 24.9258 63.9613 24.4332 64.4574C23.9406 64.9535 23.6943 65.5809 23.6943 66.3396V68.5283C23.6943 69.287 23.8682 69.8415 24.2159 70.1917C24.5636 70.5419 25.1141 70.717 25.8675 70.717H29.7357Z" fill="white"/>
<path d="M46.8618 74H44.6452C42.0953 74 39.4731 72.3804 39.4731 72.3804C38.2851 71.2714 37.6911 69.4767 37.6911 66.9962V59.117C37.6911 56.6657 38.2851 54.8855 39.4731 53.7766C40.69 52.6677 42.5589 52.1132 45.0798 52.1132H50.1215V43.3585H53.8158V74H46.8618ZM47.2964 70.717C48.2526 70.717 48.9625 70.4689 49.4261 69.9728C49.8897 69.4475 50.1215 68.8931 50.1215 68.3094V55.3962H44.6452C43.5731 55.3962 42.7618 55.6443 42.2112 56.1404C41.6607 56.6365 41.3854 57.3369 41.3854 58.2415V67.8717C41.3854 68.7764 41.6607 69.4767 42.2112 69.9728C42.7618 70.4689 43.5731 70.717 44.6452 70.717H47.2964Z" fill="white"/>
<path d="M58.5115 70.717V55.3962H55.3387V52.1132H61.9886V53.2951C62.9447 52.5072 64.1038 52.1132 65.4656 52.1132H69.9423V55.6151H65.031C64.1038 55.6151 63.4083 55.9215 62.9447 56.5343C62.4811 57.118 62.2349 57.7162 62.2059 58.3291V70.717H66.9433V74H53.8158V70.717H58.5115Z" fill="white"/>
<path d="M61.1193 16C62.1045 16 62.9737 16.3502 63.7271 17.0506C64.4515 17.7509 64.8137 18.8599 64.8137 20.3774V43.3585L70 43.3585V46.6415H61.1193L61.1176 20.3774C61.1176 19.9104 61.0034 19.7937 60.7716 19.5894C60.5398 19.3852 60.1486 19.283 59.5981 19.283H58.1638V16H61.1193Z" fill="white"/>
</svg>
